<svg width="19" height="19" viewBox="0 0 19 19" fill="none" xmlns="http://www.w3.org/2000/svg">
<path fill-rule="evenodd" clip-rule="evenodd" d="M2.10305 10.5749C2.10305 6.63984 5.29302 3.44987 9.22805 3.44987C13.1631 3.44987 16.3531 6.63984 16.3531 10.5749C16.3531 14.5099 13.1631 17.6999 9.22805 17.6999C5.29302 17.6999 2.10305 14.5099 2.10305 10.5749ZM3.29055 10.5749C3.29055 13.8541 5.94886 16.5124 9.22805 16.5124C10.8028 16.5124 12.313 15.8868 13.4265 14.7733C14.54 13.6598 15.1656 12.1496 15.1656 10.5749C15.1656 7.29567 12.5072 4.63737 9.22805 4.63737C5.94886 4.63737 3.29055 7.29567 3.29055 10.5749Z" fill="#414141"/>
<path d="M7.36763 7.55862C7.13369 7.34062 6.76913 7.34706 6.54302 7.57316C6.31691 7.79927 6.31047 8.16384 6.52847 8.39778L8.6343 10.5036V13.7415C8.6343 14.0695 8.90013 14.3353 9.22805 14.3353C9.55597 14.3353 9.8218 14.0695 9.8218 13.7415V10.2582C9.82166 10.1008 9.75902 9.94986 9.64763 9.83862L7.36763 7.55862Z" fill="#414141"/>
<path d="M16.7726 4.63737C15.7952 3.33389 14.497 2.30566 13.0043 1.65278C12.8586 1.58675 12.6925 1.58228 12.5434 1.6404C12.3944 1.69852 12.2751 1.8143 12.2126 1.96153C12.1443 2.10692 12.1386 2.274 12.197 2.42367C12.2554 2.57335 12.3726 2.69248 12.5214 2.7532C13.8252 3.32687 14.9594 4.22659 15.8147 5.3657C15.9269 5.51521 16.1028 5.6032 16.2897 5.6032C16.4183 5.60378 16.5435 5.56205 16.646 5.48445C16.7778 5.39096 16.8659 5.24776 16.8898 5.08789C16.9137 4.92803 16.8714 4.76534 16.7726 4.63737Z" fill="#414141"/>
<path d="M2.63347 5.34987C3.48877 4.21075 4.62295 3.31104 5.9268 2.73737C6.07554 2.67665 6.19282 2.55752 6.25119 2.40784C6.30957 2.25816 6.30391 2.09108 6.23555 1.9457C6.17304 1.79847 6.05377 1.68268 5.90475 1.62456C5.75573 1.56645 5.58957 1.57091 5.44388 1.63695C3.95225 2.29542 2.65668 3.32915 1.68347 4.63737C1.51246 4.89228 1.56395 5.23551 1.80222 5.42903C1.90472 5.50663 2.0299 5.54836 2.15847 5.54778C2.33865 5.55741 2.51343 5.48459 2.63347 5.34987Z" fill="#414141"/>
</svg>
